<svg width="20" height="20" viewBox="0 0 20 20" fill="none" xmlns="http://www.w3.org/2000/svg">
<circle cx="10" cy="10" r="10" fill="white" fill-opacity="0.4"/>
<path d="M6.51491 12.669C6.2896 12.8943 6.2896 13.2595 6.51491 13.4849C6.74021 13.7102 7.1055 13.7102 7.3308 13.4849L6.51491 12.669ZM14.0269 6.54976C14.0269 6.23114 13.7686 5.97284 13.45 5.97284H8.25768C7.93906 5.97284 7.68076 6.23114 7.68076 6.54976C7.68076 6.86839 7.93906 7.12669 8.25768 7.12669L12.8731 7.12669L12.8731 11.7421C12.8731 12.0607 13.1314 12.319 13.45 12.319C13.7686 12.319 14.0269 12.0607 14.0269 11.7421V6.54976ZM7.3308 13.4849L13.8579 6.95771L13.042 6.14182L6.51491 12.669L7.3308 13.4849Z" fill="#6A4BB4"/>
</svg>
