<svg width="25" height="24" viewBox="0 0 25 24" fill="none" xmlns="http://www.w3.org/2000/svg">
<path d="M2.16699 8.5V20.1667C2.16699 20.7855 2.41282 21.379 2.85041 21.8166C3.28799 22.2542 3.88149 22.5 4.50033 22.5H20.8337C21.4525 22.5 22.046 22.2542 22.4836 21.8166C22.9212 21.379 23.167 20.7855 23.167 20.1667V8.5" stroke="#FFBF35" stroke-width="1.75"/>
<path d="M22.5665 1.5H17.9092L18.4925 7.33333C18.4925 7.33333 19.6592 8.5 21.4092 8.5C22.3278 8.50121 23.2153 8.16681 23.9047 7.55967C23.9775 7.49156 24.0319 7.40601 24.0625 7.31109C24.0931 7.21617 24.099 7.11501 24.0797 7.01717L23.256 2.08333C23.2285 1.92034 23.1441 1.77236 23.0179 1.66559C22.8917 1.55883 22.7318 1.50017 22.5665 1.5Z" stroke="#FFBF35" stroke-width="1.75"/>
<path d="M17.9092 1.5L18.4925 7.33333C18.4925 7.33333 17.3258 8.5 15.5758 8.5C13.8258 8.5 12.6592 7.33333 12.6592 7.33333V1.5H17.9092Z" stroke="#FFBF35" stroke-width="1.75"/>
<path d="M12.6585 1.5V7.33333C12.6585 7.33333 11.4919 8.5 9.74186 8.5C7.99186 8.5 6.8252 7.33333 6.8252 7.33333L7.40853 1.5H12.6585Z" stroke="#FFBF35" stroke-width="1.75"/>
<path d="M7.40888 1.5H2.75271C2.58704 1.49994 2.42672 1.55864 2.30025 1.66566C2.17379 1.77269 2.08938 1.9211 2.06205 2.0845L1.23955 7.01833C1.22032 7.11618 1.2263 7.21731 1.25691 7.31221C1.28752 7.40711 1.34177 7.49266 1.41455 7.56083C1.79721 7.89917 2.65238 8.50117 3.90888 8.50117C5.65888 8.50117 6.82555 7.3345 6.82555 7.3345L7.40888 1.5Z" stroke="#FFBF35" stroke-width="1.75"/>
</svg>
