<svg width="29" height="28" viewBox="0 0 29 28" fill="none" xmlns="http://www.w3.org/2000/svg">
<path d="M7.33334 25.6667C6.69167 25.6667 6.14217 25.438 5.68484 24.9807C5.2275 24.5234 4.99922 23.9743 5 23.3334V9.33337C5 8.69171 5.22867 8.14221 5.686 7.68487C6.14334 7.22754 6.69245 6.99926 7.33334 7.00004H9.66667C9.66667 5.71671 10.1236 4.6181 11.0375 3.70421C11.9514 2.79032 13.05 2.33337 14.3333 2.33337C15.6167 2.33337 16.7153 2.79032 17.6292 3.70421C18.5431 4.6181 19 5.71671 19 7.00004H21.3333C21.975 7.00004 22.5245 7.22871 22.9818 7.68604C23.4392 8.14337 23.6674 8.69248 23.6667 9.33337V23.3334C23.6667 23.975 23.438 24.5245 22.9807 24.9819C22.5233 25.4392 21.9742 25.6675 21.3333 25.6667H7.33334ZM7.33334 23.3334H21.3333V9.33337H19V11.6667C19 11.9973 18.888 12.2745 18.664 12.4985C18.44 12.7225 18.1631 12.8342 17.8333 12.8334C17.5028 12.8334 17.2255 12.7214 17.0015 12.4974C16.7775 12.2734 16.6659 11.9965 16.6667 11.6667V9.33337H12V11.6667C12 11.9973 11.888 12.2745 11.664 12.4985C11.44 12.7225 11.1631 12.8342 10.8333 12.8334C10.5028 12.8334 10.2255 12.7214 10.0015 12.4974C9.7775 12.2734 9.66589 11.9965 9.66667 11.6667V9.33337H7.33334V23.3334ZM12 7.00004H16.6667C16.6667 6.35837 16.438 5.80887 15.9807 5.35154C15.5233 4.89421 14.9742 4.66593 14.3333 4.66671C13.6917 4.66671 13.1422 4.89537 12.6848 5.35271C12.2275 5.81004 11.9992 6.35915 12 7.00004Z" fill="white"/>
</svg>


