<svg width="21" height="20" viewBox="0 0 21 20" fill="none" xmlns="http://www.w3.org/2000/svg">
<path fill-rule="evenodd" clip-rule="evenodd" d="M13.432 12.5C14.5203 12.5 15.447 13.1958 15.7903 14.1667H16.7653C16.9863 14.1667 17.1983 14.2545 17.3546 14.4107C17.5108 14.567 17.5986 14.779 17.5986 15C17.5986 15.221 17.5108 15.433 17.3546 15.5893C17.1983 15.7455 16.9863 15.8333 16.7653 15.8333H15.7903C15.6181 16.3213 15.2988 16.7438 14.8765 17.0427C14.4541 17.3415 13.9494 17.502 13.432 17.502C12.9145 17.502 12.4098 17.3415 11.9875 17.0427C11.5651 16.7438 11.2458 16.3213 11.0736 15.8333H3.43197C3.21095 15.8333 2.99899 15.7455 2.84271 15.5893C2.68643 15.433 2.59863 15.221 2.59863 15C2.59863 14.779 2.68643 14.567 2.84271 14.4107C2.99899 14.2545 3.21095 14.1667 3.43197 14.1667H11.0736C11.2461 13.6791 11.5656 13.257 11.9879 12.9585C12.4103 12.66 12.9148 12.4999 13.432 12.5ZM13.432 14.1667C13.211 14.1667 12.999 14.2545 12.8427 14.4107C12.6864 14.567 12.5986 14.779 12.5986 15C12.5986 15.221 12.6864 15.433 12.8427 15.5893C12.999 15.7455 13.211 15.8333 13.432 15.8333C13.653 15.8333 13.8649 15.7455 14.0212 15.5893C14.1775 15.433 14.2653 15.221 14.2653 15C14.2653 14.779 14.1775 14.567 14.0212 14.4107C13.8649 14.2545 13.653 14.1667 13.432 14.1667ZM6.7653 7.5C7.25612 7.49993 7.73611 7.64435 8.14541 7.91524C8.55471 8.18613 8.87522 8.57151 9.06697 9.02333L9.1228 9.16667H16.7653C16.9777 9.1669 17.182 9.24823 17.3364 9.39404C17.4909 9.53985 17.5838 9.73913 17.5963 9.95116C17.6087 10.1632 17.5397 10.372 17.4034 10.5349C17.2671 10.6977 17.0737 10.8024 16.8628 10.8275L16.7653 10.8333H9.12363C8.95563 11.3086 8.64794 11.722 8.24091 12.0193C7.83388 12.3166 7.3465 12.484 6.84268 12.4995C6.33885 12.515 5.84211 12.3779 5.41757 12.1061C4.99304 11.8344 4.66052 11.4407 4.46363 10.9767L4.40697 10.8333H3.43197C3.21957 10.8331 3.01527 10.7518 2.86083 10.606C2.70638 10.4602 2.61344 10.2609 2.60099 10.0488C2.58854 9.8368 2.65753 9.62802 2.79385 9.46514C2.93018 9.30226 3.12355 9.19759 3.33447 9.1725L3.43197 9.16667H4.40697C4.57947 8.6791 4.8989 8.25702 5.32126 7.95853C5.74361 7.66005 6.24812 7.49985 6.7653 7.5ZM6.7653 9.16667C6.54429 9.16667 6.33232 9.25446 6.17604 9.41074C6.01976 9.56702 5.93197 9.77899 5.93197 10C5.93197 10.221 6.01976 10.433 6.17604 10.5893C6.33232 10.7455 6.54429 10.8333 6.7653 10.8333C6.98631 10.8333 7.19827 10.7455 7.35455 10.5893C7.51084 10.433 7.59863 10.221 7.59863 10C7.59863 9.77899 7.51084 9.56702 7.35455 9.41074C7.19827 9.25446 6.98631 9.16667 6.7653 9.16667ZM13.432 2.5C14.5203 2.5 15.447 3.19583 15.7903 4.16667H16.7653C16.9863 4.16667 17.1983 4.25446 17.3546 4.41074C17.5108 4.56702 17.5986 4.77899 17.5986 5C17.5986 5.22101 17.5108 5.43298 17.3546 5.58926C17.1983 5.74554 16.9863 5.83333 16.7653 5.83333H15.7903C15.6181 6.32128 15.2988 6.74381 14.8765 7.04268C14.4541 7.34155 13.9494 7.50204 13.432 7.50204C12.9145 7.50204 12.4098 7.34155 11.9875 7.04268C11.5651 6.74381 11.2458 6.32128 11.0736 5.83333H3.43197C3.21095 5.83333 2.99899 5.74554 2.84271 5.58926C2.68643 5.43298 2.59863 5.22101 2.59863 5C2.59863 4.77899 2.68643 4.56702 2.84271 4.41074C2.99899 4.25446 3.21095 4.16667 3.43197 4.16667H11.0736C11.2461 3.6791 11.5656 3.25702 11.9879 2.95853C12.4103 2.66005 12.9148 2.49985 13.432 2.5ZM13.432 4.16667C13.211 4.16667 12.999 4.25446 12.8427 4.41074C12.6864 4.56702 12.5986 4.77899 12.5986 5C12.5986 5.22101 12.6864 5.43298 12.8427 5.58926C12.999 5.74554 13.211 5.83333 13.432 5.83333C13.653 5.83333 13.8649 5.74554 14.0212 5.58926C14.1775 5.43298 14.2653 5.22101 14.2653 5C14.2653 4.77899 14.1775 4.56702 14.0212 4.41074C13.8649 4.25446 13.653 4.16667 13.432 4.16667Z" fill="white"/>
</svg>
