<svg width="33" height="32" viewBox="0 0 33 32" fill="none" xmlns="http://www.w3.org/2000/svg">
<rect x="0.0996094" width="32" height="32" rx="4" fill="#E1F3FC"/>
<path d="M15.9996 26L20.5496 14H22.6496L27.1996 26H25.0996L24.0496 22.95H19.1996L18.0996 26H15.9996ZM19.7996 21.2H23.3996L21.6496 16.25H21.5496L19.7996 21.2ZM8.09961 23L6.69961 21.6L11.7496 16.55C11.1163 15.85 10.5619 15.125 10.0866 14.375C9.61128 13.625 9.19894 12.8333 8.84961 12H10.9496C11.2496 12.6 11.5706 13.1417 11.9126 13.625C12.2546 14.1083 12.6669 14.6167 13.1496 15.15C13.8829 14.35 14.4913 13.529 14.9746 12.687C15.4579 11.845 15.8663 10.9493 16.1996 10H5.09961V8H12.0996V6H14.0996V8H21.0996V10H18.1996C17.8496 11.1833 17.3746 12.3333 16.7746 13.45C16.1746 14.5667 15.4329 15.6167 14.5496 16.6L16.9496 19.05L16.1996 21.1L13.0996 18L8.09961 23Z" fill="#008DDD"/>
</svg>
