<svg width="16" height="16" viewBox="0 0 16 16" fill="none" xmlns="http://www.w3.org/2000/svg">
<path d="M10.9987 9.66667H10.3404L10.107 9.44167C10.9519 8.46169 11.4163 7.21058 11.4154 5.91667C11.4154 4.84535 11.0977 3.7981 10.5025 2.90733C9.9073 2.01656 9.06133 1.3223 8.07157 0.912322C7.0818 0.502347 5.99269 0.395079 4.94196 0.604082C3.89123 0.813085 2.92607 1.32897 2.16854 2.08651C1.411 2.84404 0.895117 3.8092 0.686113 4.85993C0.47711 5.91066 0.584378 6.99977 0.994353 7.98954C1.40433 8.9793 2.0986 9.82527 2.98936 10.4205C3.88013 11.0157 4.92738 11.3333 5.9987 11.3333C7.34037 11.3333 8.5737 10.8417 9.5237 10.025L9.7487 10.2583V10.9167L13.9154 15.075L15.157 13.8333L10.9987 9.66667ZM5.9987 9.66667C3.9237 9.66667 2.2487 7.99167 2.2487 5.91667C2.2487 3.84167 3.9237 2.16667 5.9987 2.16667C8.0737 2.16667 9.7487 3.84167 9.7487 5.91667C9.7487 7.99167 8.0737 9.66667 5.9987 9.66667Z" fill="#687685"/>
</svg>
