<svg width="33" height="32" viewBox="0 0 33 32" fill="none" xmlns="http://www.w3.org/2000/svg">
<rect x="0.0996094" width="32" height="32" rx="4" fill="#FFF8E3"/>
<g clip-path="url(#clip0_291_43)">
<path d="M21.5996 12C21.5996 12 23.0996 13.5 23.0996 16C23.0996 18.5 21.5996 20 21.5996 20M24.5996 9C24.5996 9 27.0996 11.5 27.0996 16C27.0996 20.5 24.5996 23 24.5996 23M10.5996 12C10.5996 12 9.09961 13.5 9.09961 16C9.09961 18.5 10.5996 20 10.5996 20M7.59961 9C7.59961 9 5.09961 11.5 5.09961 16C5.09961 20.5 7.59961 23 7.59961 23" stroke="#FFBF35" stroke-width="2" stroke-linecap="round" stroke-linejoin="round"/>
<path d="M16.0996 17C16.3648 17 16.6192 16.8946 16.8067 16.7071C16.9943 16.5196 17.0996 16.2652 17.0996 16C17.0996 15.7348 16.9943 15.4804 16.8067 15.2929C16.6192 15.1054 16.3648 15 16.0996 15C15.8344 15 15.58 15.1054 15.3925 15.2929C15.205 15.4804 15.0996 15.7348 15.0996 16C15.0996 16.2652 15.205 16.5196 15.3925 16.7071C15.58 16.8946 15.8344 17 16.0996 17Z" fill="#FFBF35" stroke="#FFBF35" stroke-width="2" stroke-linecap="round" stroke-linejoin="round"/>
</g>
<defs>
<clipPath id="clip0_291_43">
<rect width="24" height="24" fill="white" transform="translate(4.09961 4)"/>
</clipPath>
</defs>
</svg>
