<svg width="48" height="48" viewBox="0 0 48 48" fill="none" xmlns="http://www.w3.org/2000/svg">
<path d="M23.9997 0.230225C19.2886 0.230225 14.6832 1.62724 10.766 4.24462C6.84883 6.86199 3.79576 10.5822 1.99288 14.9347C0.190009 19.2873 -0.281707 24.0767 0.637393 28.6973C1.55649 33.3179 3.82512 37.5622 7.15641 40.8935C10.4877 44.2248 14.732 46.4935 19.3527 47.4126C23.9733 48.3317 28.7627 47.8599 33.1152 46.0571C37.4678 44.2542 41.1879 41.2011 43.8053 37.2839C46.4227 33.3668 47.8197 28.7614 47.8197 24.0503C47.8134 17.7347 45.3017 11.6797 40.836 7.21396C36.3702 2.74822 30.3152 0.236578 23.9997 0.230225ZM23.9997 44.8703C19.8819 44.8703 15.8566 43.6492 12.4327 41.3615C9.00889 39.0737 6.34034 35.8221 4.76452 32.0177C3.18871 28.2134 2.7764 24.0272 3.57974 19.9885C4.38309 15.9498 6.366 12.24 9.27773 9.32826C12.1895 6.41653 15.8992 4.43362 19.9379 3.63027C23.9766 2.82693 28.1628 3.23924 31.9672 4.81505C35.7715 6.39087 39.0232 9.05942 41.3109 12.4833C43.5986 15.9071 44.8197 19.9324 44.8197 24.0503C44.8134 29.5701 42.6178 34.8621 38.7147 38.7652C34.8115 42.6683 29.5196 44.8639 23.9997 44.8703Z" fill="black"/>
<path d="M33.8761 14.9782C32.1241 15.2542 30.3721 15.4462 28.6081 15.5782C29.292 14.6406 29.6617 13.5107 29.6641 12.3502C29.699 11.598 29.5811 10.8466 29.3173 10.1413C29.0535 9.43603 28.6495 8.7916 28.1296 8.24696C27.6097 7.70233 26.9847 7.2688 26.2924 6.9726C25.6002 6.6764 24.855 6.52368 24.1021 6.52368C23.3491 6.52368 22.604 6.6764 21.9117 6.9726C21.2195 7.2688 20.5945 7.70233 20.0746 8.24696C19.5547 8.7916 19.1506 9.43603 18.8868 10.1413C18.6231 10.8466 18.5051 11.598 18.5401 12.3502C18.5424 13.5107 18.9121 14.6406 19.5961 15.5782C17.8321 15.4462 16.0681 15.2542 14.3161 14.9782C13.5951 14.838 12.8485 14.9218 12.1765 15.2182C11.5045 15.5146 10.9392 16.0095 10.5565 16.6364C10.1738 17.2633 9.9921 17.9922 10.0356 18.7254C10.0791 19.4586 10.3459 20.1609 10.8001 20.7381C11.0815 21.1307 11.4389 21.4626 11.8513 21.7141C12.2636 21.9656 12.7223 22.1316 13.2001 22.2021C15.2041 22.5261 17.2801 22.7542 19.3921 22.8982V24.7582L13.2001 34.4902C12.9401 34.8959 12.7625 35.349 12.6776 35.8234C12.5926 36.2978 12.602 36.7842 12.705 37.255C12.9132 38.2058 13.4906 39.035 14.3101 39.5601C15.1296 40.0853 16.1242 40.2633 17.075 40.0552C17.5458 39.9521 17.9916 39.7573 18.3871 39.4819C18.7827 39.2065 19.1201 38.8559 19.3801 38.4501L24.0001 31.1061L28.6441 38.4501C28.9019 38.8591 29.2382 39.2129 29.6335 39.4912C30.0289 39.7695 30.4754 39.9666 30.9474 40.0714C31.4194 40.1761 31.9074 40.1862 32.3833 40.1013C32.8593 40.0163 33.3136 39.8379 33.7202 39.5764C34.1268 39.3148 34.4776 38.9753 34.7522 38.5775C35.0268 38.1796 35.2199 37.7313 35.3203 37.2584C35.4208 36.7854 35.4265 36.2973 35.3372 35.8222C35.2479 35.3471 35.0653 34.8943 34.8001 34.4902L28.8001 25.0461V22.8502C30.9121 22.7062 32.9881 22.4782 34.9921 22.1542C35.9469 21.995 36.7993 21.4631 37.3619 20.6755C37.9245 19.8878 38.1512 18.9089 37.9921 17.9542C37.8329 16.9994 37.301 16.1469 36.5134 15.5843C35.7257 15.0217 34.7469 14.795 33.7921 14.9542L33.8761 14.9782ZM24.0961 9.7821C24.6068 9.76778 25.1102 9.90612 25.5419 10.1795C25.9735 10.4528 26.3139 10.8487 26.5193 11.3165C26.7248 11.7843 26.786 12.3028 26.6952 12.8055C26.6044 13.3083 26.3657 13.7726 26.0096 14.139C25.6534 14.5054 25.1961 14.7572 24.6961 14.8623C24.1961 14.9673 23.6761 14.9208 23.2027 14.7288C22.7292 14.5367 22.3239 14.2078 22.0384 13.7841C21.7529 13.3603 21.6003 12.8611 21.6001 12.3502C21.5998 11.6814 21.8605 11.0389 22.3266 10.5593C22.7927 10.0797 23.4276 9.80085 24.0961 9.7821ZM34.5601 19.2502C32.1432 19.6293 29.7077 19.8777 27.2641 19.9942C26.8789 20.0127 26.5156 20.1788 26.2497 20.4582C25.9837 20.7375 25.8356 21.1085 25.8361 21.4942V25.4902C25.838 25.7755 25.9212 26.0544 26.0761 26.2942L32.2921 36.0501C32.3387 36.1234 32.3704 36.2051 32.3853 36.2906C32.4003 36.3761 32.3982 36.4638 32.3793 36.5485C32.3603 36.6332 32.3249 36.7133 32.2749 36.7843C32.2249 36.8553 32.1614 36.9157 32.0881 36.9621C31.9393 37.0531 31.761 37.0827 31.5908 37.0446C31.4206 37.0066 31.2719 36.9038 31.1761 36.7581L25.2721 27.4461C25.1436 27.2414 24.9672 27.071 24.7581 26.9498C24.5491 26.8285 24.3136 26.76 24.0721 26.7501C23.8187 26.7503 23.5695 26.814 23.3472 26.9356C23.1249 27.0572 22.9368 27.2329 22.8001 27.4461L16.8001 36.8061C16.7591 36.8896 16.7009 36.9634 16.6294 37.0228C16.5578 37.0822 16.4745 37.1258 16.385 37.1508C16.2954 37.1758 16.2016 37.1815 16.1097 37.1677C16.0177 37.1539 15.9297 37.1208 15.8515 37.0706C15.7732 37.0204 15.7064 36.9542 15.6555 36.8765C15.6046 36.7987 15.5707 36.711 15.556 36.6192C15.5413 36.5274 15.5462 36.4335 15.5704 36.3437C15.5945 36.2539 15.6373 36.1702 15.6961 36.0982L22.0921 26.0061C22.2488 25.7673 22.3322 25.4878 22.3321 25.2021V21.4822C22.3325 21.0965 22.1844 20.7255 21.9185 20.4462C21.6526 20.1668 21.2893 20.0007 20.9041 19.9822C18.4727 19.869 16.0491 19.6246 13.6441 19.2502C13.5578 19.2381 13.475 19.2084 13.4007 19.163C13.3264 19.1176 13.2622 19.0574 13.2121 18.9862C13.1317 18.8819 13.085 18.7557 13.0781 18.6243C13.0712 18.4929 13.1045 18.3625 13.1735 18.2504C13.2426 18.1384 13.3441 18.05 13.4646 17.9971C13.5851 17.9442 13.7189 17.9292 13.8481 17.9542C20.6374 19.0342 27.5548 19.0342 34.3441 17.9542C34.5168 17.9292 34.6926 17.9712 34.8353 18.0716C34.9781 18.172 35.0771 18.3231 35.1121 18.4942C35.1364 18.6672 35.0924 18.8429 34.9894 18.9841C34.8863 19.1252 34.7323 19.2206 34.5601 19.2502Z" fill="black"/>
</svg>
