<svg width="48" height="47" viewBox="0 0 48 47" fill="none" xmlns="http://www.w3.org/2000/svg">
<path d="M41.9996 9.07203H35.7716C35.8294 8.11471 35.7115 7.1549 35.4236 6.24003C35.0164 4.94799 34.2691 3.78935 33.2597 2.88567C32.2505 1.982 31.0166 1.3666 29.6876 1.10403C28.5767 0.876143 27.4289 0.898319 26.3276 1.16895C25.2262 1.43959 24.1988 1.95191 23.32 2.66876C22.4413 3.38561 21.733 4.28903 21.2465 5.31353C20.7601 6.33803 20.5076 7.45793 20.5076 8.59203C20.5076 8.74803 20.5076 8.91603 20.5076 9.07203H14.2916C12.94 9.07521 11.6446 9.61354 10.6889 10.5693C9.73315 11.525 9.1948 12.8204 9.19164 14.172V19.728C8.14012 19.6445 7.0827 19.7794 6.0859 20.1246C5.08911 20.4696 4.17451 21.0172 3.39966 21.733C2.62482 22.4487 2.00649 23.317 1.58359 24.2835C1.1607 25.2498 0.942383 26.2932 0.942383 27.348C0.942383 28.4028 1.1607 29.4464 1.58359 30.4127C2.00649 31.379 2.62482 32.2473 3.39966 32.9631C4.17451 33.6788 5.08911 34.2264 6.0859 34.5716C7.0827 34.9166 8.14012 35.0516 9.19164 34.968V41.88C9.1948 43.2317 9.73315 44.527 10.6889 45.4828C11.6446 46.4385 12.94 46.9768 14.2916 46.98H41.9996C43.3513 46.9768 44.6467 46.4385 45.6023 45.4828C46.5581 44.527 47.0965 43.2317 47.0996 41.88V14.172C47.0965 12.8204 46.5581 11.525 45.6023 10.5693C44.6467 9.61354 43.3513 9.07521 41.9996 9.07203ZM44.0996 41.88C44.0965 42.4361 43.8742 42.9684 43.481 43.3615C43.088 43.7545 42.5557 43.9768 41.9996 43.98H14.2916C13.7357 43.9768 13.2033 43.7545 12.8102 43.3615C12.4171 42.9684 12.1948 42.4361 12.1916 41.88V33.096C12.1852 32.8593 12.1232 32.6273 12.0106 32.4189C11.8981 32.2104 11.7381 32.0313 11.5436 31.896C11.2917 31.7263 10.9954 31.6345 10.6916 31.632C10.5117 31.6357 10.3334 31.6682 10.1636 31.728C9.38286 32.0204 8.53779 32.0972 7.71712 31.9502C6.89646 31.8033 6.13047 31.4382 5.49955 30.8933C4.86864 30.3483 4.39606 29.6435 4.13145 28.8528C3.86683 28.0623 3.81991 27.215 3.99564 26.4C4.13457 25.7469 4.41271 25.1314 4.81113 24.5955C5.20953 24.0595 5.71881 23.616 6.30424 23.2947C6.88969 22.9736 7.53751 22.7823 8.20354 22.7343C8.86956 22.6862 9.53812 22.7823 10.1636 23.016C10.3916 23.0988 10.6361 23.1255 10.8766 23.094C11.1171 23.0623 11.3464 22.9734 11.5452 22.8345C11.7441 22.6957 11.9066 22.5111 12.0191 22.2962C12.1316 22.0814 12.1908 21.8425 12.1916 21.6V14.172C12.1916 13.6151 12.4129 13.0809 12.8067 12.6871C13.2005 12.2933 13.7347 12.072 14.2916 12.072H22.3316C22.5703 12.0739 22.8059 12.0183 23.0186 11.91C23.2313 11.8017 23.4149 11.6438 23.5537 11.4497C23.6926 11.2555 23.7827 11.0308 23.8165 10.7945C23.8502 10.5582 23.8265 10.3173 23.7476 10.092C23.591 9.60734 23.51 9.1014 23.5076 8.59203C23.5064 7.91708 23.6522 7.24994 23.935 6.6371C24.2179 6.02424 24.6308 5.48042 25.1453 5.04347C25.6598 4.60653 26.2633 4.28697 26.9138 4.10708C27.5644 3.92717 28.2463 3.89123 28.9121 4.00176C29.578 4.1123 30.2117 4.36664 30.7693 4.74708C31.3268 5.12754 31.7947 5.62494 32.1404 6.20468C32.486 6.7844 32.7013 7.4325 32.7709 8.10387C32.8405 8.77522 32.7629 9.45369 32.5436 10.092C32.4647 10.3173 32.4412 10.5582 32.4749 10.7945C32.5087 11.0308 32.5988 11.2555 32.7376 11.4497C32.8765 11.6438 33.0599 11.8017 33.2726 11.91C33.4853 12.0183 33.721 12.0739 33.9596 12.072H41.9996C42.5566 12.072 43.0907 12.2933 43.4846 12.6871C43.8784 13.0809 44.0996 13.6151 44.0996 14.172V41.88Z" fill="#1D1C1D"/>
<path d="M36.0003 25.8121H30.0003V20.4001C30.0003 20.0023 29.8422 19.6207 29.5609 19.3395C29.2797 19.0582 28.8981 18.9001 28.5003 18.9001C28.1025 18.9001 27.7209 19.0582 27.4396 19.3395C27.1584 19.6207 27.0003 20.0023 27.0003 20.4001V25.8121H21.6003C21.2272 25.8456 20.8801 26.0175 20.6272 26.2939C20.3745 26.5704 20.2344 26.9314 20.2344 27.3061C20.2344 27.6807 20.3745 28.0419 20.6272 28.3183C20.8801 28.5948 21.2272 28.7667 21.6003 28.8001H27.0123V34.8001C27.0457 35.1732 27.2176 35.5203 27.4941 35.7732C27.7705 36.0259 28.1317 36.166 28.5063 36.166C28.8808 36.166 29.242 36.0259 29.5185 35.7732C29.7949 35.5203 29.9668 35.1732 30.0003 34.8001V28.8001H36.0003C36.3981 28.8001 36.7797 28.642 37.0609 28.3608C37.3422 28.0795 37.5003 27.6979 37.5003 27.3001C37.5003 26.9023 37.3422 26.5207 37.0609 26.2395C36.7797 25.9582 36.3981 25.8001 36.0003 25.8001V25.8121Z" fill="#1D1C1D"/>
</svg>
