<svg width="48" height="48" viewBox="0 0 48 48" fill="none" xmlns="http://www.w3.org/2000/svg">
<path d="M42.0001 0.950209H6.00021C5.32889 0.948631 4.66383 1.0793 4.04301 1.33474C3.42219 1.59019 2.85776 1.96541 2.38196 2.43899C1.90614 2.91257 1.52828 3.47522 1.26992 4.09484C1.01156 4.71446 0.877778 5.37889 0.876203 6.05021V42.0502C0.869835 42.7259 0.997847 43.3963 1.2528 44.0222C1.50776 44.648 1.88456 45.2171 2.36132 45.6961C2.83808 46.175 3.40529 46.5545 4.02998 46.8124C4.65467 47.0702 5.32439 47.2013 6.00021 47.1982H42.0001C42.676 47.2013 43.3458 47.0702 43.9704 46.8124C44.5952 46.5545 45.1623 46.175 45.6391 45.6961C46.1158 45.2171 46.4927 44.648 46.7477 44.0222C47.0025 43.3963 47.1306 42.7259 47.1241 42.0502V6.05021C47.1226 5.37889 46.9888 4.71446 46.7305 4.09484C46.4721 3.47522 46.0943 2.91257 45.6185 2.43899C45.1427 1.96541 44.5782 1.59019 43.9573 1.33474C43.3365 1.0793 42.6715 0.948631 42.0001 0.950209ZM44.1241 42.0502C44.1306 42.332 44.0803 42.6122 43.9761 42.8741C43.872 43.1362 43.7161 43.3744 43.518 43.5749C43.3198 43.7753 43.0833 43.9339 42.8224 44.041C42.5617 44.1479 42.282 44.2015 42.0001 44.1982H6.00021C5.71833 44.2015 5.43867 44.1479 5.17791 44.041C4.91715 43.9339 4.68062 43.7753 4.48241 43.5749C4.2842 43.3744 4.12838 43.1362 4.02423 42.8741C3.92009 42.6122 3.86975 42.332 3.87621 42.0502V6.05021C3.87618 5.7724 3.93129 5.49736 4.03832 5.24099C4.14536 4.98463 4.30218 4.75205 4.49975 4.55674C4.6973 4.36141 4.93164 4.20724 5.18919 4.10312C5.44676 3.99901 5.72241 3.94703 6.00021 3.95021H42.0001C42.2779 3.94703 42.5537 3.99901 42.8112 4.10312C43.0688 4.20724 43.3031 4.36141 43.5006 4.55674C43.6982 4.75205 43.855 4.98463 43.9621 5.24099C44.0691 5.49736 44.1241 5.7724 44.1241 6.05021V42.0502Z" fill="#1D1C1D"/>
<path d="M34.884 16.6459H31.2L31.716 13.1659C31.7444 12.9705 31.7339 12.7714 31.6854 12.58C31.6368 12.3886 31.551 12.2086 31.4328 12.0504C31.1943 11.7309 30.8387 11.5191 30.444 11.4619C30.0494 11.4046 29.6481 11.5064 29.3285 11.745C29.009 11.9835 28.7972 12.3392 28.74 12.7339L28.164 16.6459H22.476L22.98 13.1659C23.0207 12.9659 23.0201 12.7598 22.9784 12.5601C22.9365 12.3603 22.8545 12.1712 22.7372 12.0043C22.6199 11.8374 22.4697 11.6962 22.2959 11.5893C22.122 11.4824 21.9282 11.4121 21.7263 11.3826C21.5244 11.3532 21.3186 11.3653 21.1217 11.4181C20.9246 11.4709 20.7404 11.5634 20.5802 11.6899C20.4201 11.8164 20.2875 11.9742 20.1905 12.1537C20.0934 12.3332 20.034 12.5306 20.016 12.7339L19.44 16.6459H14.5439C14.1461 16.6459 13.7646 16.8039 13.4833 17.0851C13.202 17.3665 13.0439 17.748 13.0439 18.1459C13.0439 18.5437 13.202 18.9252 13.4833 19.2066C13.7646 19.4878 14.1461 19.6459 14.5439 19.6459H19.008L17.928 27.0379H13.1279C12.7301 27.0379 12.3486 27.1959 12.0673 27.4771C11.786 27.7585 11.6279 28.14 11.6279 28.5379C11.6279 28.9357 11.786 29.3172 12.0673 29.5986C12.3486 29.8798 12.7301 30.0379 13.1279 30.0379H17.496L16.8 34.9819C16.7402 35.3661 16.8318 35.7585 17.0556 36.0763C17.2796 36.3942 17.6181 36.6127 18 36.6859H18.228C18.587 36.6838 18.9333 36.5532 19.2041 36.3175C19.475 36.082 19.6523 35.7571 19.704 35.4019L20.52 30.0499H26.184L25.464 34.9939C25.4055 35.3868 25.5053 35.787 25.7415 36.1065C25.9778 36.426 26.331 36.6387 26.724 36.6979H26.952C27.311 36.6958 27.6573 36.5652 27.9281 36.3295C28.199 36.094 28.3763 35.7691 28.428 35.4139L29.22 30.0499H33.456C33.8538 30.0499 34.2353 29.8918 34.5167 29.6106C34.7979 29.3292 34.956 28.9477 34.956 28.5499C34.956 28.152 34.7979 27.7705 34.5167 27.4891C34.2353 27.2079 33.8538 27.0499 33.456 27.0499H29.652L30.744 19.6579H34.884C35.2818 19.6579 35.6633 19.4998 35.9447 19.2186C36.2259 18.9372 36.384 18.5557 36.384 18.1579C36.384 17.76 36.2259 17.3785 35.9447 17.0971C35.6633 16.8159 35.2818 16.6579 34.884 16.6579V16.6459ZM26.628 27.0379H20.952L22.032 19.6459H27.708L26.628 27.0379Z" fill="#1D1C1D"/>
</svg>
