<svg width="48" height="32" viewBox="0 0 48 32" fill="none" xmlns="http://www.w3.org/2000/svg">
<path d="M45.3844 1.84984C44.8688 1.55632 44.2856 1.40197 43.6924 1.40197C43.0991 1.40197 42.5159 1.55632 42.0004 1.84984L34.8004 6.04984V5.13784C34.8004 3.78525 34.2631 2.48803 33.3067 1.5316C32.3501 0.575172 31.0529 0.0378418 29.7004 0.0378418H6.00039C4.64778 0.0378418 3.35058 0.575172 2.39414 1.5316C1.43771 2.48803 0.900391 3.78525 0.900391 5.13784V26.3898C0.900391 27.0595 1.03231 27.7228 1.2886 28.3416C1.5449 28.9603 1.92057 29.5225 2.39414 29.9961C2.86772 30.4696 3.42995 30.8454 4.0487 31.1016C4.66746 31.3579 5.33064 31.4898 6.00039 31.4898H29.6764C30.3481 31.4931 31.0139 31.3635 31.6354 31.1085C32.257 30.8536 32.822 30.4785 33.2981 30.0046C33.7742 29.5308 34.1521 28.9674 34.4099 28.3471C34.6676 27.7267 34.8004 27.0616 34.8004 26.3898V25.4778L42.0004 29.6298C42.5221 29.9308 43.1141 30.0882 43.7164 30.0858C44.315 30.0895 44.9036 29.932 45.4204 29.6298C45.9442 29.3331 46.3793 28.902 46.681 28.381C46.9826 27.8599 47.1398 27.2679 47.1364 26.6658V4.86184C47.1449 4.2481 46.9865 3.64359 46.6778 3.11302C46.3693 2.58244 45.9221 2.14581 45.3844 1.84984ZM31.7764 7.72978V26.3898C31.7764 26.9467 31.5551 27.4809 31.1612 27.8748C30.7675 28.2685 30.2333 28.4898 29.6764 28.4898H6.00039C5.44343 28.4898 4.90929 28.2685 4.51547 27.8748C4.12164 27.4809 3.90039 26.9467 3.90039 26.3898V5.13784C3.90356 4.58298 4.1262 4.05192 4.5197 3.66067C4.91318 3.26944 5.44551 3.04984 6.00039 3.04984H29.6764C30.2333 3.04984 30.7675 3.27109 31.1612 3.66492C31.5551 4.05874 31.7764 4.59289 31.7764 5.14984V7.72978ZM44.1004 26.6658C44.1017 26.74 44.0822 26.8132 44.044 26.8768C44.0059 26.9404 43.9505 26.9922 43.8844 27.0258C43.8226 27.0681 43.7494 27.0907 43.6744 27.0907C43.5994 27.0907 43.5262 27.0681 43.4644 27.0258L34.8004 22.0098V9.51778L43.4884 4.50184C43.5502 4.45954 43.6234 4.43691 43.6984 4.43691C43.7734 4.43691 43.8466 4.45954 43.9084 4.50184C43.9745 4.53558 44.0299 4.58722 44.068 4.65087C44.1062 4.71453 44.1257 4.78762 44.1244 4.86184L44.1004 26.6658Z" fill="#1D1C1D"/>
<path d="M25.608 15.302C25.2419 15.1745 24.8403 15.1963 24.4901 15.3624C24.1397 15.5286 23.8689 15.8259 23.736 16.1901C23.2955 17.3883 22.4994 18.4231 21.4544 19.1563C20.4095 19.8895 19.1654 20.2858 17.8889 20.2924C16.6124 20.2989 15.3642 19.9153 14.3118 19.1928C13.2594 18.4704 12.4528 17.4436 12 16.25C11.8473 15.9131 11.5737 15.6458 11.2333 15.5011C10.8928 15.3563 10.5105 15.3448 10.1619 15.4685C9.81334 15.5923 9.52392 15.8424 9.35097 16.1694C9.17802 16.4964 9.13414 16.8763 9.22801 17.234C9.86803 19.0192 11.0439 20.5632 12.5947 21.6546C14.1455 22.7461 15.9956 23.3319 17.892 23.3319C19.7885 23.3319 21.6386 22.7461 23.1894 21.6546C24.7401 20.5632 25.916 19.0192 26.556 17.234C26.6291 17.0455 26.6622 16.8439 26.6534 16.642C26.6447 16.44 26.5941 16.2419 26.5052 16.0604C26.4161 15.8789 26.2904 15.7179 26.136 15.5874C25.9815 15.4569 25.8018 15.3596 25.608 15.302Z" fill="#1D1C1D"/>
<path d="M14.8442 14.4382C15.1926 14.4404 15.5338 14.3396 15.8248 14.1482C16.116 13.957 16.344 13.6837 16.48 13.363C16.6161 13.0423 16.654 12.6884 16.5892 12.3461C16.5244 12.0038 16.3597 11.6884 16.116 11.4395C15.8721 11.1907 15.5601 11.0197 15.2193 10.948C14.8783 10.8763 14.5238 10.907 14.2004 11.0365C13.877 11.1659 13.5991 11.3884 13.4019 11.6755C13.2047 11.9627 13.0969 12.3017 13.0922 12.6502C13.0874 12.8833 13.1292 13.1149 13.215 13.3316C13.301 13.5484 13.4292 13.7458 13.5924 13.9123C13.7556 14.0788 13.9503 14.2111 14.1653 14.3014C14.3802 14.3917 14.611 14.4382 14.8442 14.4382Z" fill="#1D1C1D"/>
<path d="M20.5561 14.4382C20.9044 14.4404 21.2456 14.3396 21.5368 14.1482C21.8279 13.957 22.0558 13.6837 22.1918 13.363C22.3279 13.0423 22.366 12.6884 22.3012 12.3461C22.2364 12.0038 22.0717 11.6884 21.8279 11.4395C21.584 11.1907 21.272 11.0197 20.9311 10.948C20.5903 10.8763 20.2357 10.907 19.9123 11.0365C19.5889 11.1659 19.3111 11.3884 19.1138 11.6755C18.9166 11.9627 18.8089 12.3017 18.8041 12.6502C18.7993 12.8833 18.841 13.1149 18.9269 13.3316C19.0129 13.5484 19.1411 13.7458 19.3043 13.9123C19.4675 14.0788 19.6622 14.2111 19.8772 14.3014C20.0921 14.3917 20.323 14.4382 20.5561 14.4382Z" fill="#1D1C1D"/>
</svg>
