<svg width="38" height="38" viewBox="0 0 38 38" fill="none" xmlns="http://www.w3.org/2000/svg">
<path fill-rule="evenodd" clip-rule="evenodd" d="M7.85949 7.85105C4.89311 10.6925 3.10132 14.3722 3.10132 17.8501V21.8082C4.75806 20.282 6.97049 19.35 9.40059 19.35H9.75059C12.0426 19.35 13.9006 21.208 13.9006 23.5V33.8C13.9006 36.092 12.0426 37.95 9.75059 37.95H9.40059C4.26434 37.95 0.100586 33.7862 0.100586 28.65C0.100586 28.6106 0.100826 28.5713 0.101316 28.532V17.8501C0.101316 13.3751 2.37034 8.95485 5.78429 5.68455C9.20899 2.40413 13.9176 0.150146 19.0013 0.150146C24.085 0.150146 28.7937 2.40413 32.2183 5.68455C35.6323 8.95485 37.9013 13.3751 37.9013 17.8501V28.6066L37.9014 28.65C37.9014 33.7862 33.7377 37.95 28.6014 37.95H28.2514C25.9595 37.95 24.1014 36.092 24.1014 33.8V23.5C24.1014 21.208 25.9595 19.35 28.2514 19.35H28.6014C31.0318 19.35 33.2445 20.2823 34.9013 21.8088V17.8501C34.9013 14.3722 33.1095 10.6925 30.1431 7.85105C27.1874 5.01972 23.196 3.15015 19.0013 3.15015C14.8067 3.15015 10.8153 5.01972 7.85949 7.85105ZM3.10059 28.6501C3.10065 32.1294 5.92119 34.95 9.40059 34.95H9.75059C10.3857 34.95 10.9006 34.4351 10.9006 33.8V23.5C10.9006 22.8649 10.3857 22.35 9.75059 22.35H9.40059C5.95359 22.35 3.15322 25.1183 3.10132 28.5529L3.10059 28.6501ZM34.9013 28.6501V28.6143C34.8821 25.1513 32.0689 22.35 28.6014 22.35H28.2514C27.6163 22.35 27.1014 22.8649 27.1014 23.5V33.8C27.1014 34.4351 27.6163 34.95 28.2514 34.95H28.6014C32.0808 34.95 34.9013 32.1294 34.9013 28.6501Z" fill="#1D1C1D"/>
</svg>
