<svg width="48" height="41" viewBox="0 0 48 41" fill="none" xmlns="http://www.w3.org/2000/svg">
<path d="M42.0004 8.34595H29.9164V5.15395C29.9164 3.80134 29.3791 2.50414 28.4227 1.5477C27.4661 0.59127 26.1689 0.0539551 24.8164 0.0539551H6.00039C4.64876 0.0571201 3.35339 0.595455 2.39765 1.55121C1.4419 2.50695 0.903559 3.80232 0.900391 5.15395V21.0779C0.900391 22.4306 1.43771 23.7278 2.39414 24.6842C3.35058 25.6406 4.64778 26.1779 6.00039 26.1779H7.92039V30.3059C7.92003 30.5924 8.00105 30.873 8.154 31.1153C8.30697 31.3574 8.52558 31.5512 8.78439 31.6739C9.04644 31.7889 9.33507 31.8296 9.61868 31.7915C9.90228 31.7534 10.17 31.638 10.3924 31.4579L16.7044 26.1779H18.0844V29.3579C18.0844 30.7137 18.623 32.0139 19.5817 32.9727C20.5403 33.9314 21.8405 34.4699 23.1964 34.4699H31.2964L37.6084 39.7619C37.8826 39.9866 38.2259 40.1096 38.5804 40.1099C38.8004 40.1096 39.0176 40.0604 39.2164 39.9659C39.4733 39.8441 39.6907 39.6522 39.8435 39.4122C39.9964 39.1724 40.0784 38.8943 40.0804 38.6099V34.4699H42.0004C43.3529 34.4699 44.6501 33.9326 45.6067 32.9762C46.5631 32.0198 47.1004 30.7226 47.1004 29.3699V13.4459C47.0972 12.0944 46.5589 10.799 45.6031 9.84321C44.6474 8.88745 43.352 8.34912 42.0004 8.34595ZM16.1524 23.1779C15.8026 23.1839 15.4648 23.3063 15.1924 23.5259L10.9204 27.1259V24.7259C10.9204 24.3281 10.7624 23.9466 10.481 23.6652C10.1997 23.384 9.81821 23.2259 9.42039 23.2259H6.00039C5.44343 23.2259 4.90929 23.0046 4.51547 22.6109C4.12164 22.217 3.90039 21.6828 3.90039 21.1259V5.15395C3.90354 4.59796 4.1258 4.06566 4.51895 3.67251C4.9121 3.27936 5.4444 3.0571 6.00039 3.05395H24.8164C25.3733 3.05395 25.9075 3.2752 26.3012 3.66903C26.6951 4.06285 26.9164 4.59699 26.9164 5.15395V21.0659C26.9164 21.3432 26.8618 21.6179 26.7556 21.8742C26.6495 22.1304 26.4938 22.3632 26.2978 22.5593C26.1017 22.7555 25.8688 22.911 25.6126 23.0172C25.3564 23.1233 25.0817 23.1779 24.8044 23.1779H16.1524ZM44.1004 29.3699C44.1004 29.9268 43.8791 30.461 43.4852 30.8549C43.0915 31.2486 42.5573 31.4699 42.0004 31.4699H38.5804C38.1826 31.4699 37.801 31.628 37.5197 31.9092C37.2385 32.1906 37.0804 32.5721 37.0804 32.9699V35.3699L32.8084 31.7699C32.5411 31.5399 32.2009 31.4124 31.8484 31.4099H23.1964C22.6363 31.4099 22.099 31.1874 21.703 30.7913C21.3068 30.3953 21.0844 29.8581 21.0844 29.2979V26.1779H24.8164C26.1689 26.1779 27.4661 25.6406 28.4227 24.6842C29.3791 23.7278 29.9164 22.4306 29.9164 21.0779V11.3579H42.0004C42.5564 11.361 43.0886 11.5833 43.4818 11.9765C43.8749 12.3696 44.0972 12.902 44.1004 13.4579V29.3699Z" fill="#1D1C1D"/>
<path d="M9.16839 11.322C8.85437 11.3291 8.54942 11.4287 8.29173 11.6084C8.03405 11.7879 7.8351 12.0396 7.7198 12.3318C7.60451 12.624 7.57799 12.9437 7.64358 13.2509C7.70916 13.5581 7.86393 13.839 8.08851 14.0586C8.31308 14.2782 8.59746 14.4267 8.90604 14.4855C9.21461 14.5442 9.53364 14.5106 9.82319 14.3888C10.1127 14.267 10.3599 14.0625 10.5337 13.8009C10.7076 13.5392 10.8003 13.2321 10.8004 12.918C10.8021 12.7049 10.7608 12.4937 10.6789 12.2969C10.5971 12.1001 10.4763 11.9219 10.3239 11.7728C10.1716 11.6238 9.99069 11.5071 9.79212 11.4296C9.59357 11.3522 9.38142 11.3156 9.16839 11.322Z" fill="#1D1C1D"/>
<path d="M15.4444 11.3218C15.1292 11.3242 14.8218 11.4199 14.561 11.5966C14.3001 11.7735 14.0974 12.0235 13.9784 12.3154C13.8595 12.6072 13.8296 12.9277 13.8925 13.2366C13.9554 13.5453 14.1084 13.8286 14.332 14.0506C14.5557 14.2726 14.8401 14.4234 15.1493 14.484C15.4586 14.5446 15.7789 14.5123 16.0699 14.3913C16.3607 14.2701 16.6094 14.0655 16.7842 13.8033C16.9591 13.5411 17.0524 13.233 17.0524 12.9178C17.0524 12.7072 17.0107 12.4987 16.9297 12.3043C16.8488 12.1099 16.7302 11.9334 16.5806 11.785C16.4312 11.6367 16.2538 11.5194 16.0588 11.4399C15.8638 11.3604 15.655 11.3203 15.4444 11.3218Z" fill="#1D1C1D"/>
<path d="M21.7318 14.5138C22.0474 14.5138 22.3561 14.4202 22.6184 14.2448C22.8809 14.0695 23.0855 13.8202 23.2063 13.5286C23.327 13.237 23.3587 12.916 23.2972 12.6064C23.2355 12.2968 23.0836 12.0124 22.8604 11.7892C22.6372 11.566 22.3528 11.414 22.0432 11.3524C21.7336 11.2909 21.4126 11.3225 21.121 11.4433C20.8294 11.564 20.5801 11.7686 20.4047 12.0311C20.2294 12.2935 20.1358 12.6022 20.1358 12.9178C20.1341 13.1278 20.1743 13.3361 20.254 13.5304C20.3336 13.7248 20.4512 13.9013 20.5997 14.0498C20.7482 14.1983 20.9248 14.3159 21.1192 14.3956C21.3134 14.4752 21.5218 14.5154 21.7318 14.5138Z" fill="#1D1C1D"/>
</svg>
