<svg width="43" height="48" viewBox="0 0 43 48" fill="none" xmlns="http://www.w3.org/2000/svg">
<path d="M37.6964 7.19985C35.8931 5.12652 33.6657 3.46438 31.1649 2.32578C28.6641 1.18716 25.9481 0.598602 23.2004 0.599856C22.3536 0.602052 21.5079 0.658165 20.6684 0.767855C17.406 1.18612 14.3057 2.43543 11.6649 4.39603C9.02404 6.35662 6.93114 8.96277 5.58684 11.9646C4.24254 14.9664 3.6919 18.2632 3.98773 21.5389C4.28356 24.8146 5.41594 27.9594 7.2763 30.6719L1.5163 38.0758C0.850275 38.9289 0.437505 39.9522 0.32514 41.0286C0.212775 42.105 0.40533 43.1914 0.88083 44.1637C1.35631 45.1359 2.0956 45.9549 3.01428 46.5272C3.93294 47.0994 4.99399 47.4018 6.0763 47.3998C6.95052 47.401 7.81345 47.2027 8.59948 46.8201C9.38551 46.4374 10.0739 45.8806 10.6123 45.1918L16.3604 37.8719C19.496 39.0609 22.8863 39.4164 26.2004 38.9038C29.6127 38.3853 32.8221 36.9566 35.4911 34.7679C38.1599 32.5793 40.1894 29.7116 41.366 26.4668C42.5426 23.222 42.8228 19.7199 42.1769 16.3293C41.5311 12.9388 39.9833 9.78498 37.6964 7.19985ZM39.3524 22.0559C38.8893 25.5341 37.3161 28.77 34.8665 31.2824C32.4168 33.7946 29.2217 35.4492 25.7564 35.9999C24.9185 36.1281 24.072 36.1923 23.2244 36.1918C20.861 36.1966 18.5255 35.6803 16.3844 34.6798C16.2035 34.5964 16.0074 34.5516 15.8084 34.5479C15.6168 34.5477 15.4278 34.5909 15.2555 34.674C15.083 34.7571 14.9315 34.878 14.8124 35.0279L8.2603 43.4279C7.99131 43.742 7.65573 43.992 7.27794 44.1601C6.90016 44.3283 6.48967 44.4102 6.0763 44.3998C5.55735 44.3994 5.04895 44.2533 4.60894 43.9782C4.16895 43.7029 3.81502 43.3098 3.58746 42.8434C3.35988 42.3771 3.26781 41.8561 3.3217 41.34C3.3756 40.8238 3.5733 40.3332 3.8923 39.9239L10.4563 31.5238C10.6315 31.297 10.7265 31.0185 10.7265 30.7318C10.7265 30.4452 10.6315 30.1666 10.4563 29.9398C8.80303 27.8281 7.69776 25.3402 7.23897 22.6978C6.78018 20.0554 6.98211 17.3407 7.82677 14.7952C8.67144 12.2498 10.1326 9.95284 12.0801 8.10897C14.0276 6.26508 16.401 4.93153 18.9887 4.22715C21.5765 3.52276 24.2982 3.46941 26.9117 4.07182C29.525 4.67424 31.9488 5.91373 33.9671 7.67988C35.9853 9.44602 37.5354 11.684 38.4792 14.1943C39.423 16.7048 39.7311 19.4095 39.3764 22.0678L39.3524 22.0559Z" fill="#1D1C1D"/>
<path d="M23.1995 8.77185C20.4129 8.77725 17.7299 9.82832 15.681 11.7171C13.6323 13.6059 12.367 16.1949 12.1355 18.9719H10.3355C10.2348 18.9704 10.1359 18.9992 10.0517 19.0544C9.96747 19.1097 9.90174 19.1889 9.86298 19.2819C9.82424 19.3749 9.81425 19.4775 9.83432 19.5762C9.85437 19.6749 9.90357 19.7654 9.97554 19.8359L13.1675 23.0399C13.2639 23.1338 13.3931 23.1863 13.5275 23.1863C13.662 23.1863 13.7912 23.1338 13.8875 23.0399L17.0915 19.8359C17.1635 19.7654 17.2127 19.6749 17.2328 19.5762C17.2529 19.4775 17.2428 19.3749 17.2041 19.2819C17.1653 19.1889 17.0996 19.1097 17.0154 19.0544C16.9311 18.9992 16.8323 18.9704 16.7315 18.9719H15.0875C15.3053 17.0856 16.1795 15.3362 17.5574 14.0298C18.9353 12.7235 20.7287 11.9435 22.6238 11.8265C24.5189 11.7095 26.3948 12.2629 27.9228 13.3899C29.4509 14.5169 30.5337 16.1456 30.9818 17.9906C31.4298 19.8357 31.2144 21.7796 30.3734 23.4818C29.5323 25.1841 28.1192 26.5362 26.3816 27.3013C24.6438 28.0665 22.6923 28.1958 20.8688 27.6669C19.0452 27.1378 17.466 25.9842 16.4075 24.4079C16.1856 24.0794 15.8427 23.8519 15.4538 23.7754C15.0647 23.6991 14.6613 23.7797 14.3315 23.9999C14.0022 24.224 13.7745 24.5689 13.6982 24.96C13.6218 25.3509 13.7028 25.7562 13.9235 26.0878C14.9931 27.6772 16.4555 28.9631 18.1686 29.8205C19.8818 30.678 21.7875 31.0779 23.7009 30.9816C25.6142 30.8853 27.4701 30.296 29.0885 29.2709C30.7068 28.2458 32.0327 26.8196 32.9373 25.1309C33.842 23.4422 34.2947 21.5483 34.2515 19.6329C34.2083 17.7177 33.6705 15.8462 32.6906 14.1999C31.7108 12.5538 30.3219 11.1889 28.6589 10.2378C26.996 9.28671 25.1153 8.78172 23.1995 8.77185Z" fill="#1D1C1D"/>
</svg>
