<svg width="40" height="48" viewBox="0 0 40 48" fill="none" xmlns="http://www.w3.org/2000/svg">
<path d="M31.7997 16.0199H18.1797C17.7819 16.0199 17.4003 16.178 17.119 16.4592C16.8378 16.7406 16.6797 17.1221 16.6797 17.5199C16.6797 17.9177 16.8378 18.2993 17.119 18.5805C17.4003 18.8619 17.7819 19.0199 18.1797 19.0199H31.7997C32.1975 19.0199 32.5791 18.8619 32.8603 18.5805C33.1417 18.2993 33.2997 17.9177 33.2997 17.5199C33.2997 17.1221 33.1417 16.7406 32.8603 16.4592C32.5791 16.178 32.1975 16.0199 31.7997 16.0199Z" fill="#1D1C1D"/>
<path d="M31.7997 21.672H18.1797C17.7819 21.672 17.4003 21.8301 17.119 22.1113C16.8378 22.3926 16.6797 22.7742 16.6797 23.172C16.6797 23.5698 16.8378 23.9514 17.119 24.2326C17.4003 24.5139 17.7819 24.672 18.1797 24.672H31.7997C32.1975 24.672 32.5791 24.5139 32.8603 24.2326C33.1417 23.9514 33.2997 23.5698 33.2997 23.172C33.2997 22.7742 33.1417 22.3926 32.8603 22.1113C32.5791 21.8301 32.1975 21.672 31.7997 21.672Z" fill="#1D1C1D"/>
<path d="M31.8004 27.5999H25.4404C25.0425 27.5999 24.661 27.758 24.3798 28.0392C24.0984 28.3205 23.9404 28.7021 23.9404 29.0999C23.9404 29.4977 24.0984 29.8793 24.3798 30.1605C24.661 30.4418 25.0425 30.5999 25.4404 30.5999H31.8004C32.1982 30.5999 32.5797 30.4418 32.8611 30.1605C33.1423 29.8793 33.3004 29.4977 33.3004 29.0999C33.3004 28.7021 33.1423 28.3205 32.8611 28.0392C32.5797 27.758 32.1982 27.5999 31.8004 27.5999Z" fill="#1D1C1D"/>
<path d="M29.4001 0.900146H15.1561C13.9776 0.903323 12.8482 1.37377 12.0158 2.20834C11.1835 3.04291 10.7161 4.17348 10.7161 5.35215V28.5241L5.65214 30.1081C5.06051 30.2913 4.53434 30.6414 4.13686 31.1163C3.73937 31.5912 3.48748 32.1708 3.41144 32.7855C3.33541 33.4001 3.43846 34.0236 3.70822 34.5812C3.97798 35.1386 4.40297 35.6064 4.93214 35.9282L5.14814 36.0602L1.80014 38.9642C1.46837 39.254 1.19995 39.6092 1.01162 40.0074C0.823299 40.4057 0.719125 40.8384 0.70561 41.2788C0.692095 41.719 0.76954 42.1575 0.933085 42.5666C1.09663 42.9756 1.34278 43.3465 1.65614 43.6561L4.45214 46.4642C4.76434 46.7736 5.13643 47.016 5.54561 47.1765C5.9548 47.337 6.39247 47.4123 6.83177 47.3977C7.27108 47.383 7.70278 47.2789 8.1004 47.0916C8.49802 46.9042 8.8532 46.6376 9.14414 46.3082L12.0481 42.9962L12.1801 43.2121C12.5051 43.7368 12.9736 44.1573 13.5303 44.4239C14.0869 44.6904 14.7082 44.7918 15.3208 44.716C15.9333 44.6403 16.5111 44.3906 16.986 43.9964C17.4609 43.6022 17.8129 43.0802 18.0001 42.4922L19.3921 38.0282H34.9921C35.5779 38.033 36.1587 37.9221 36.7014 37.7019C37.2441 37.4818 37.7382 37.1568 38.155 36.7455C38.5719 36.334 38.9035 35.8446 39.1309 35.3049C39.3583 34.7651 39.477 34.1858 39.4801 33.6002V11.1961L29.4001 0.900146ZM30.2641 6.07215L34.4161 10.3081H30.2521L30.2641 6.07215ZM15.1681 41.6041C15.1549 41.6473 15.1276 41.685 15.0907 41.711C15.0538 41.7371 15.0093 41.7501 14.9641 41.7481C14.9281 41.7507 14.8923 41.743 14.8603 41.7261C14.8285 41.709 14.8021 41.6835 14.7841 41.6522L12.6721 38.1961C12.6523 38.1666 12.6256 38.1423 12.5942 38.1255C12.5627 38.1088 12.5278 38.1002 12.4921 38.1002C12.4624 38.0993 12.4327 38.1053 12.4057 38.1177C12.3785 38.1302 12.3547 38.1489 12.3361 38.1721L6.92414 44.3281C6.90551 44.3514 6.88172 44.37 6.85465 44.3826C6.82757 44.395 6.79795 44.401 6.76814 44.4001C6.7138 44.4193 6.65449 44.4193 6.60014 44.4001L3.80414 41.5322C3.76448 41.4899 3.74242 41.4341 3.74242 41.3762C3.74242 41.3183 3.76448 41.2625 3.80414 41.2202L9.96014 35.8202C9.98743 35.8001 10.0096 35.7738 10.0249 35.7436C10.0402 35.7133 10.0482 35.68 10.0482 35.6461C10.0482 35.6122 10.0402 35.579 10.0249 35.5487C10.0096 35.5184 9.98743 35.4922 9.96014 35.4721L6.50414 33.3602C6.4646 33.3459 6.4304 33.3199 6.40622 33.2854C6.38206 33.2511 6.36909 33.2102 6.36909 33.1682C6.36909 33.1262 6.38206 33.0852 6.40622 33.0507C6.4304 33.0164 6.4646 32.9904 6.50414 32.9762L18.6601 29.1721H18.7201C18.7543 29.1699 18.7884 29.1763 18.8193 29.1906C18.8503 29.205 18.8772 29.2271 18.8976 29.2545C18.9178 29.282 18.9309 29.314 18.9355 29.3479C18.9402 29.3817 18.9363 29.4162 18.9241 29.4481L15.1681 41.6041ZM35.0281 35.0282H20.3641L21.8401 30.3362C21.9909 29.8544 22.026 29.3441 21.9429 28.8462C21.8596 28.3484 21.6604 27.8771 21.3613 27.4704C21.0622 27.0639 20.6716 26.7334 20.2212 26.5057C19.7707 26.2782 19.2729 26.1597 18.7681 26.1601C18.4428 26.16 18.1192 26.2086 17.8081 26.3042L13.7161 27.6002V5.35215C13.7161 4.96912 13.8675 4.60161 14.1372 4.32964C14.4069 4.05768 14.7732 3.90331 15.1561 3.90015H27.2521V10.6201C27.2553 11.3341 27.5412 12.0178 28.0473 12.5216C28.5532 13.0253 29.2381 13.3081 29.9521 13.3081H36.4801V33.6002C36.4738 33.981 36.3181 34.3443 36.0465 34.6115C35.7748 34.8785 35.4091 35.0282 35.0281 35.0282Z" fill="#1D1C1D"/>
</svg>
