<svg width="32" height="48" viewBox="0 0 32 48" fill="none" xmlns="http://www.w3.org/2000/svg">
<path d="M7.37966 47.1C6.91796 47.0979 6.46376 46.9814 6.05786 46.7609C5.65208 46.5405 5.30717 46.223 5.05402 45.8367C4.80085 45.4503 4.64732 45.0074 4.60714 44.5473C4.56695 44.0873 4.64137 43.6243 4.82374 43.2L11.1357 28.8H4.19974C3.51277 28.8042 2.83591 28.6346 2.23228 28.3065C1.62865 27.9785 1.11791 27.5029 0.747699 26.9242C0.377484 26.3457 0.15985 25.6825 0.11509 24.997C0.0703296 24.3115 0.199914 23.6259 0.491739 23.004L9.62366 3.27597C9.94871 2.56403 10.4704 1.95983 11.1273 1.53461C11.7843 1.10937 12.5491 0.880852 13.3317 0.875977H22.9317C23.4031 0.876886 23.8666 0.996962 24.2791 1.22504C24.6918 1.45312 25.0399 1.78181 25.2913 2.18054C25.5429 2.57927 25.6894 3.03509 25.7175 3.50565C25.7454 3.9762 25.654 4.44621 25.4517 4.87197L19.0797 18.192H26.9997C27.8044 18.1892 28.5919 18.4243 29.2633 18.8679C29.9347 19.3116 30.4599 19.9439 30.7729 20.6852C31.0858 21.4266 31.1725 22.2438 31.0222 23.0345C30.8718 23.825 30.4911 24.5534 29.9277 25.128L9.38366 46.248C9.12371 46.5168 8.81232 46.7307 8.46807 46.8771C8.12382 47.0235 7.75376 47.0992 7.37966 47.1ZM13.4037 25.824C13.6537 25.8253 13.8754 25.8525 14.0949 25.972C14.3145 26.0916 14.5009 26.2636 14.6377 26.4729C14.7744 26.6821 14.857 26.922 14.8783 27.171C14.8998 27.4202 14.859 27.6705 14.7597 27.9L8.02767 43.332L27.7438 23.04C27.8998 22.8873 28.0054 22.6904 28.0462 22.4759C28.087 22.2612 28.0611 22.0394 27.9717 21.84C27.8896 21.6413 27.7495 21.4721 27.5697 21.3543C27.3898 21.2366 27.1786 21.1758 26.9637 21.18H16.7037C16.4503 21.1798 16.2012 21.1159 15.9789 20.9944C15.7566 20.8728 15.5685 20.6973 15.4317 20.484C15.3009 20.267 15.2248 20.0214 15.2101 19.7683C15.1956 19.5153 15.2428 19.2625 15.3478 19.032L22.5478 3.88797H13.3317C13.1239 3.88808 12.9205 3.94814 12.7461 4.06095C12.5715 4.17375 12.4332 4.33454 12.3477 4.52397L3.23974 24.288C3.16372 24.451 3.12968 24.6306 3.14069 24.8103C3.15172 24.9898 3.20744 25.164 3.30283 25.3166C3.39821 25.4691 3.53023 25.5956 3.68686 25.6842C3.8435 25.7727 4.0198 25.8208 4.19974 25.824H13.4037Z" fill="#1D1C1D"/>
</svg>
